<?xml version="1.0" standalone="no"?><!DOCTYPE svg PUBLIC "-//W3C//DTD SVG 1.1//EN" "http://www.w3.org/Graphics/SVG/1.1/DTD/svg11.dtd"><svg t="1737531492820" class="icon" viewBox="0 0 1024 1024" version="1.1" xmlns="http://www.w3.org/2000/svg" p-id="15443" xmlns:xlink="http://www.w3.org/1999/xlink" width="200" height="200"><path d="M806.250667 745.856l90.517333 90.496-60.352 60.352-90.517333-90.517333z" p-id="15444"></path><path d="M926.933333 806.186667l-90.666666-90.453334a43.946667 43.946667 0 0 0-60.373334 0l-158.72-158.72 54.826667-54.826666a212.053333 212.053333 0 0 0 249.813333-287.573334 42.666667 42.666667 0 0 0-31.146666-25.173333 42.666667 42.666667 0 0 0-37.333334 11.52l-64 65.066667-24.533333-4.906667-5.12-24.746667 64-64a42.666667 42.666667 0 0 0-13.653333-69.333333A212.053333 212.053333 0 0 0 521.813333 352l-54.613333 54.826667-38.186667-38.186667 30.08-30.08a42.666667 42.666667 0 0 0 0-60.373333L277.333333 97.066667a43.946667 43.946667 0 0 0-60.373333 0l-119.893333 120.746666a42.666667 42.666667 0 0 0 0 60.373334L277.333333 459.306667a42.666667 42.666667 0 0 0 30.08 12.373333 42.666667 42.666667 0 0 0 30.293334-12.373333l30.08-30.293334 38.186666 37.973334L97.92 776.106667a42.666667 42.666667 0 0 0 0 60.16l89.813333 89.813333a42.666667 42.666667 0 0 0 60.16 0l309.12-308.906667 158.72 158.72a42.666667 42.666667 0 0 0 0 60.16l90.453334 90.666667a42.666667 42.666667 0 0 0 30.08 11.946667 42.666667 42.666667 0 0 0 30.293333-12.373334l60.373333-60.373333A42.666667 42.666667 0 0 0 938.666667 836.266667a42.666667 42.666667 0 0 0-11.733334-30.08z m-618.666666-437.546667L187.733333 248.106667l60.373334-60.373334 120.533333 120.533334z m-90.453334 466.986667l-29.44-29.44 412.586667-412.586667a42.666667 42.666667 0 0 0 9.173333-46.933333 128 128 0 0 1 90.453334-173.44L682.666667 192a42.666667 42.666667 0 0 0-11.733334 38.613333l14.933334 74.88a42.666667 42.666667 0 0 0 33.493333 33.493334l74.88 14.933333a42.666667 42.666667 0 0 0 37.76-11.52l18.986667-18.986667a128 128 0 0 1-173.44 90.453334 42.666667 42.666667 0 0 0-46.72 9.173333z" p-id="15445"></path></svg>