<?xml version="1.0" standalone="no"?><!DOCTYPE svg PUBLIC "-//W3C//DTD SVG 1.1//EN" "http://www.w3.org/Graphics/SVG/1.1/DTD/svg11.dtd"><svg t="1737531532055" class="icon" viewBox="0 0 1024 1024" version="1.1" xmlns="http://www.w3.org/2000/svg" p-id="16415" xmlns:xlink="http://www.w3.org/1999/xlink" width="200" height="200"><path d="M848.457143 190.171429c43.885714-58.514286 138.971429 0 95.085714 58.514285-80.457143 117.028571-197.485714 160.914286-314.514286 124.342857L519.314286 570.514286c51.2 29.257143 109.714286 73.142857 146.285714 95.085714 36.571429 29.257143 87.771429 153.6 117.028571 219.428571 29.257143 65.828571-73.142857 117.028571-102.4 51.2-29.257143-51.2-73.142857-160.914286-95.085714-182.857142-29.257143-21.942857-117.028571-87.771429-175.542857-109.714286 0 0-7.314286 0-7.314286-7.314286-80.457143 102.4-234.057143 146.285714-365.714285 73.142857-73.142857-43.885714-7.314286-138.971429 65.828571-102.4 87.771429 65.828571 190.171429-7.314286 234.057143-102.4 43.885714-87.771429 80.457143-153.6 117.028571-219.428571-73.142857-21.942857-138.971429 0-190.171428 73.142857-43.885714 58.514286-146.285714 0-102.4-58.514286 102.4-138.971429 248.685714-175.542857 402.285714-87.771428 7.314286 7.314286 36.571429 21.942857 43.885714 29.257143 87.771429 51.2 175.542857 43.885714 241.371429-51.2zM936.228571 1024c-51.2 0-87.771429-36.571429-87.771428-87.771429s36.571429-87.771429 87.771428-87.771428 87.771429 36.571429 87.771429 87.771428-36.571429 87.771429-87.771429 87.771429zM665.6 226.742857c-65.828571 0-109.714286-51.2-109.714286-109.714286C548.571429 51.2 599.771429 0 665.6 0c58.514286 0 109.714286 51.2 109.714286 109.714286 0 65.828571-51.2 117.028571-109.714286 117.028571z" fill="#333333" p-id="16416"></path></svg>